<svg width="56" height="21" viewBox="0 0 56 21" fill="none" xmlns="http://www.w3.org/2000/svg">
<path d="M10.2 2.048C8.408 2.048 7.02133 2.784 6.04 4.256C5.08 5.728 4.6 7.712 4.6 10.208C4.6 13.1093 5.12267 15.3387 6.168 16.896C7.21333 18.4533 8.6 19.232 10.328 19.232C11.3733 19.232 12.3227 18.88 13.176 18.176C14.0507 17.4507 14.648 16.6507 14.968 15.776L16.28 16.16C15.7893 17.3333 15.0107 18.3253 13.944 19.136C12.8987 19.9253 11.48 20.32 9.688 20.32C6.82933 20.32 4.52533 19.392 2.776 17.536C1.02667 15.68 0.152 13.472 0.152 10.912C0.152 7.94667 1.15467 5.54667 3.16 3.712C5.16533 1.87733 7.50133 0.959999 10.168 0.959999C10.7867 0.959999 11.5547 1.12 12.472 1.44C13.3893 1.76 13.912 1.92 14.04 1.92C14.296 1.92 14.424 1.70667 14.424 1.28H15.16L15.416 5.792H14.712C14.584 4.91733 14.0293 4.07467 13.048 3.264C12.0667 2.45333 11.1173 2.048 10.2 2.048ZM18.1208 20.032V19.36C19.2728 19.36 19.9448 19.1467 20.1368 18.72V2.624C19.9448 2.19733 19.2728 1.984 18.1208 1.984V1.312H25.4808C28.3608 1.312 30.7288 2.18667 32.5848 3.936C34.4621 5.664 35.4008 7.89333 35.4008 10.624C35.4008 13.376 34.4834 15.6373 32.6488 17.408C30.8354 19.1573 28.5741 20.032 25.8648 20.032H18.1208ZM24.2008 2.24V18.944H25.8648C27.3154 18.944 28.5421 18.2613 29.5448 16.896C30.5688 15.5307 31.0808 13.4507 31.0808 10.656C31.0808 7.84 30.5474 5.73867 29.4808 4.352C28.4141 2.944 27.0808 2.24 25.4808 2.24H24.2008ZM37.4645 20V19.328C38.6165 19.328 39.2885 19.1147 39.4805 18.688V2.592C39.2885 2.16533 38.6165 1.952 37.4645 1.952V1.28H42.8725L52.3445 14.24V2.592C52.1525 2.16533 51.4805 1.952 50.3285 1.952V1.28H55.4485V1.952C54.2965 1.952 53.6245 2.16533 53.4325 2.592V20H52.0245L40.5685 4.16V18.688C40.7605 19.1147 41.4325 19.328 42.5845 19.328V20H37.4645Z" fill="#B99470"/>
</svg>
