<svg width="483" height="76" viewBox="0 0 483 76" fill="none" xmlns="http://www.w3.org/2000/svg">
<g clip-path="url(#clip0_14_16)">
<mask id="path-1-outside-1_14_16" maskUnits="userSpaceOnUse" x="3" y="15" width="454" height="52" fill="black">
<rect fill="white" x="3" y="15" width="454" height="52"/>
<path d="M4.608 65V17.32H13.312V57.32H33.728V65H4.608ZM57.726 65.768C54.142 65.768 51.006 64.9573 48.318 63.336C45.63 61.7147 43.5393 59.5173 42.046 56.744C40.5527 53.9707 39.806 50.8987 39.806 47.528C39.806 44.0293 40.5527 40.936 42.046 38.248C43.582 35.5173 45.6513 33.3627 48.254 31.784C50.8993 30.2053 53.8433 29.416 57.086 29.416C59.8167 29.416 62.206 29.864 64.254 30.76C66.3447 31.656 68.1153 32.8933 69.566 34.472C71.0167 36.0507 72.126 37.864 72.894 39.912C73.662 41.9173 74.046 44.0933 74.046 46.44C74.046 47.0373 74.0033 47.656 73.918 48.296C73.8753 48.936 73.7687 49.4907 73.598 49.96H46.718V43.56H68.862L64.894 46.568C65.278 44.6053 65.1713 42.856 64.574 41.32C64.0193 39.784 63.0807 38.568 61.758 37.672C60.478 36.776 58.9207 36.328 57.086 36.328C55.3367 36.328 53.7793 36.776 52.414 37.672C51.0487 38.5253 50.0033 39.8053 49.278 41.512C48.5953 43.176 48.3393 45.2027 48.51 47.592C48.3393 49.7253 48.6167 51.624 49.342 53.288C50.11 54.9093 51.2193 56.168 52.67 57.064C54.1633 57.96 55.87 58.408 57.79 58.408C59.71 58.408 61.3313 58.0027 62.654 57.192C64.0193 56.3813 65.086 55.2933 65.854 53.928L72.638 57.256C71.9553 58.92 70.8887 60.392 69.438 61.672C67.9873 62.952 66.2593 63.9547 64.254 64.68C62.2913 65.4053 60.1153 65.768 57.726 65.768ZM98.8335 65.384C94.9082 65.384 91.8575 64.3173 89.6815 62.184C87.5482 60.008 86.4815 56.9573 86.4815 53.032V37.672H80.4655V30.184H81.1055C82.8122 30.184 84.1348 29.736 85.0735 28.84C86.0122 27.944 86.4815 26.6427 86.4815 24.936V22.248H94.8655V30.184H102.866V37.672H94.8655V52.584C94.8655 53.736 95.0575 54.7173 95.4415 55.528C95.8682 56.3387 96.5082 56.9573 97.3615 57.384C98.2575 57.8107 99.3882 58.024 100.754 58.024C101.052 58.024 101.394 58.0027 101.778 57.96C102.204 57.9173 102.61 57.8747 102.994 57.832V65C102.396 65.0853 101.714 65.1707 100.946 65.256C100.178 65.3413 99.4735 65.384 98.8335 65.384ZM114.647 35.624V31.464C116.055 31.1227 117.186 30.504 118.039 29.608C118.935 28.6693 119.49 27.56 119.703 26.28H115.927V17.32H124.375V22.824C124.375 26.28 123.543 29.1173 121.879 31.336C120.258 33.512 117.847 34.9413 114.647 35.624ZM150.642 65.768C146.93 65.768 143.687 64.8933 140.914 63.144C138.183 61.352 136.306 58.9413 135.282 55.912L141.554 52.904C142.45 54.8667 143.687 56.4027 145.266 57.512C146.887 58.6213 148.679 59.176 150.642 59.176C152.178 59.176 153.394 58.8347 154.29 58.152C155.186 57.4693 155.634 56.5733 155.634 55.464C155.634 54.7813 155.442 54.2267 155.058 53.8C154.717 53.3307 154.226 52.9467 153.586 52.648C152.989 52.3067 152.327 52.0293 151.602 51.816L145.906 50.216C142.962 49.3627 140.722 48.0613 139.186 46.312C137.693 44.5627 136.946 42.4933 136.946 40.104C136.946 37.9707 137.479 36.1147 138.546 34.536C139.655 32.9147 141.17 31.656 143.09 30.76C145.053 29.864 147.293 29.416 149.81 29.416C153.095 29.416 155.997 30.2053 158.514 31.784C161.031 33.3627 162.823 35.5813 163.89 38.44L157.49 41.448C156.893 39.8693 155.89 38.6107 154.482 37.672C153.074 36.7333 151.495 36.264 149.746 36.264C148.338 36.264 147.229 36.584 146.418 37.224C145.607 37.864 145.202 38.696 145.202 39.72C145.202 40.36 145.373 40.9147 145.714 41.384C146.055 41.8533 146.525 42.2373 147.122 42.536C147.762 42.8347 148.487 43.112 149.298 43.368L154.866 45.032C157.725 45.8853 159.922 47.1653 161.458 48.872C163.037 50.5787 163.826 52.6693 163.826 55.144C163.826 57.2347 163.271 59.0907 162.162 60.712C161.053 62.2907 159.517 63.528 157.554 64.424C155.591 65.32 153.287 65.768 150.642 65.768ZM190.796 65V37.672H184.652V30.184H190.796V29.032C190.796 26.3867 191.329 24.1467 192.396 22.312C193.505 20.4347 195.041 19.0053 197.004 18.024C198.967 17.0427 201.292 16.552 203.98 16.552C204.492 16.552 205.047 16.5947 205.644 16.68C206.284 16.7227 206.817 16.7867 207.244 16.872V24.104C206.817 24.0187 206.412 23.976 206.028 23.976C205.687 23.9333 205.367 23.912 205.068 23.912C203.191 23.912 201.74 24.3387 200.716 25.192C199.692 26.0027 199.18 27.2827 199.18 29.032V30.184H214.412V37.672H199.18V65H190.796ZM211.276 65V30.184H219.724V65H211.276ZM229.261 65V30.184H237.133V37.032L236.493 35.816C237.304 33.7253 238.627 32.1467 240.461 31.08C242.339 29.9707 244.515 29.416 246.99 29.416C249.55 29.416 251.811 29.9707 253.774 31.08C255.779 32.1893 257.336 33.7467 258.445 35.752C259.555 37.7147 260.11 39.9973 260.11 42.6V65H251.726V44.584C251.726 43.048 251.427 41.7253 250.83 40.616C250.232 39.5067 249.4 38.6533 248.333 38.056C247.309 37.416 246.093 37.096 244.685 37.096C243.32 37.096 242.104 37.416 241.037 38.056C239.971 38.6533 239.139 39.5067 238.541 40.616C237.944 41.7253 237.645 43.048 237.645 44.584V65H229.261ZM285.951 65.768C282.58 65.768 279.572 64.9787 276.927 63.4C274.282 61.7787 272.191 59.5813 270.655 56.808C269.119 54.0347 268.351 50.9627 268.351 47.592C268.351 44.1787 269.119 41.1067 270.655 38.376C272.191 35.6453 274.282 33.4693 276.927 31.848C279.615 30.2267 282.602 29.416 285.887 29.416C288.532 29.416 290.879 29.9493 292.927 31.016C295.018 32.04 296.66 33.4907 297.855 35.368L296.575 37.096V16.552H304.959V65H297.023V58.28L297.919 59.944C296.724 61.8213 295.06 63.272 292.927 64.296C290.794 65.2773 288.468 65.768 285.951 65.768ZM286.847 58.088C288.767 58.088 290.452 57.64 291.903 56.744C293.354 55.848 294.484 54.6107 295.295 53.032C296.148 51.4533 296.575 49.64 296.575 47.592C296.575 45.5867 296.148 43.7947 295.295 42.216C294.484 40.5947 293.354 39.336 291.903 38.44C290.452 37.544 288.767 37.096 286.847 37.096C284.97 37.096 283.284 37.5653 281.791 38.504C280.298 39.4 279.124 40.6373 278.271 42.216C277.46 43.752 277.055 45.544 277.055 47.592C277.055 49.64 277.46 51.4533 278.271 53.032C279.124 54.6107 280.298 55.848 281.791 56.744C283.284 57.64 284.97 58.088 286.847 58.088ZM346.278 65.768C342.865 65.768 339.75 64.9787 336.934 63.4C334.161 61.8213 331.942 59.6667 330.278 56.936C328.657 54.2053 327.846 51.0907 327.846 47.592C327.846 44.0933 328.657 40.9787 330.278 38.248C331.942 35.5173 334.161 33.3627 336.934 31.784C339.707 30.2053 342.822 29.416 346.278 29.416C349.691 29.416 352.785 30.2053 355.558 31.784C358.331 33.3627 360.529 35.5173 362.15 38.248C363.814 40.936 364.646 44.0507 364.646 47.592C364.646 51.0907 363.814 54.2053 362.15 56.936C360.486 59.6667 358.267 61.8213 355.494 63.4C352.721 64.9787 349.649 65.768 346.278 65.768ZM346.278 58.088C348.155 58.088 349.798 57.64 351.206 56.744C352.657 55.848 353.787 54.6107 354.598 53.032C355.451 51.4107 355.878 49.5973 355.878 47.592C355.878 45.544 355.451 43.752 354.598 42.216C353.787 40.6373 352.657 39.4 351.206 38.504C349.798 37.5653 348.155 37.096 346.278 37.096C344.358 37.096 342.673 37.5653 341.222 38.504C339.771 39.4 338.619 40.6373 337.766 42.216C336.955 43.752 336.55 45.544 336.55 47.592C336.55 49.5973 336.955 51.4107 337.766 53.032C338.619 54.6107 339.771 55.848 341.222 56.744C342.673 57.64 344.358 58.088 346.278 58.088ZM385.98 65.768C383.292 65.768 380.945 65.1707 378.94 63.976C376.977 62.7813 375.463 61.1173 374.396 58.984C373.372 56.8507 372.86 54.3547 372.86 51.496V30.184H381.244V50.792C381.244 52.2427 381.521 53.5227 382.076 54.632C382.673 55.6987 383.505 56.552 384.572 57.192C385.681 57.7893 386.919 58.088 388.284 58.088C389.649 58.088 390.865 57.7893 391.932 57.192C392.999 56.552 393.831 55.6773 394.428 54.568C395.025 53.4587 395.324 52.136 395.324 50.6V30.184H403.708V65H395.772V58.152L396.476 59.368C395.665 61.5013 394.321 63.1013 392.444 64.168C390.609 65.2347 388.455 65.768 385.98 65.768ZM429.934 65.384C426.008 65.384 422.958 64.3173 420.782 62.184C418.648 60.008 417.582 56.9573 417.582 53.032V37.672H411.566V30.184H412.206C413.912 30.184 415.235 29.736 416.174 28.84C417.112 27.944 417.582 26.6427 417.582 24.936V22.248H425.966V30.184H433.966V37.672H425.966V52.584C425.966 53.736 426.158 54.7173 426.542 55.528C426.968 56.3387 427.608 56.9573 428.462 57.384C429.358 57.8107 430.488 58.024 431.854 58.024C432.152 58.024 432.494 58.0027 432.878 57.96C433.304 57.9173 433.71 57.8747 434.094 57.832V65C433.496 65.0853 432.814 65.1707 432.046 65.256C431.278 65.3413 430.574 65.384 429.934 65.384ZM447.347 50.536L446.771 17.32H455.283L454.707 50.536H447.347ZM446.771 65V56.04H455.283V65H446.771Z"/>
</mask>
<path d="M4.608 65H3.608V66H4.608V65ZM4.608 17.32V16.32H3.608V17.32H4.608ZM13.312 17.32H14.312V16.32H13.312V17.32ZM13.312 57.32H12.312V58.32H13.312V57.32ZM33.728 57.32H34.728V56.32H33.728V57.32ZM33.728 65V66H34.728V65H33.728ZM5.608 65V17.32H3.608V65H5.608ZM4.608 18.32H13.312V16.32H4.608V18.32ZM12.312 17.32V57.32H14.312V17.32H12.312ZM13.312 58.32H33.728V56.32H13.312V58.32ZM32.728 57.32V65H34.728V57.32H32.728ZM33.728 64H4.608V66H33.728V64ZM48.318 63.336L47.8015 64.1923L47.8015 64.1923L48.318 63.336ZM42.046 56.744L42.9265 56.2699L42.046 56.744ZM42.046 38.248L41.1744 37.7577L41.1718 37.7624L42.046 38.248ZM48.254 31.784L47.7415 30.9253L47.7354 30.929L48.254 31.784ZM64.254 30.76L63.8532 31.6762L63.8601 31.6791L64.254 30.76ZM69.566 34.472L68.8297 35.1486L68.8297 35.1486L69.566 34.472ZM72.894 39.912L71.9577 40.2631L71.9601 40.2696L72.894 39.912ZM73.918 48.296L72.9268 48.1638L72.9224 48.1966L72.9202 48.2295L73.918 48.296ZM73.598 49.96V50.96H74.2984L74.5378 50.3017L73.598 49.96ZM46.718 49.96H45.718V50.96H46.718V49.96ZM46.718 43.56V42.56H45.718V43.56H46.718ZM68.862 43.56L69.4661 44.3569L71.8365 42.56H68.862V43.56ZM64.894 46.568L63.9126 46.376L63.4093 48.9483L65.4981 47.3649L64.894 46.568ZM64.574 41.32L63.6334 41.6596L63.6376 41.6711L63.642 41.6824L64.574 41.32ZM61.758 37.672L61.1845 38.4912L61.1908 38.4956L61.1972 38.4999L61.758 37.672ZM52.414 37.672L52.944 38.52L52.9534 38.5141L52.9627 38.508L52.414 37.672ZM49.278 41.512L48.3576 41.1208L48.3528 41.1324L49.278 41.512ZM48.51 47.592L49.5068 47.6717L49.5129 47.5963L49.5075 47.5208L48.51 47.592ZM49.342 53.288L48.4253 53.6876L48.4316 53.7019L48.4383 53.7161L49.342 53.288ZM52.67 57.064L52.1445 57.9149L52.1555 57.9215L52.67 57.064ZM62.654 57.192L62.1434 56.3321L62.1314 56.3394L62.654 57.192ZM65.854 53.928L66.2944 53.0302L65.4458 52.6139L64.9824 53.4377L65.854 53.928ZM72.638 57.256L73.5632 57.6356L73.9182 56.7702L73.0784 56.3582L72.638 57.256ZM69.438 61.672L70.0996 62.4218L70.0996 62.4218L69.438 61.672ZM64.254 64.68L63.9139 63.7396L63.9074 63.742L64.254 64.68ZM57.726 64.768C54.2977 64.768 51.3455 63.9943 48.8345 62.4797L47.8015 64.1923C50.6665 65.9204 53.9863 66.768 57.726 66.768V64.768ZM48.8345 62.4797C46.3004 60.9512 44.3352 58.8861 42.9265 56.2699L41.1655 57.2181C42.7435 60.1486 44.9596 62.4781 47.8015 64.1923L48.8345 62.4797ZM42.9265 56.2699C41.5171 53.6524 40.806 50.7451 40.806 47.528H38.806C38.806 51.0522 39.5883 54.2889 41.1655 57.2181L42.9265 56.2699ZM40.806 47.528C40.806 44.1755 41.5202 41.2536 42.9202 38.7336L41.1718 37.7624C39.5852 40.6184 38.806 43.8831 38.806 47.528H40.806ZM42.9176 38.7383C44.3718 36.1529 46.3214 34.1258 48.7726 32.639L47.7354 30.929C44.9812 32.5995 42.7922 34.8817 41.1744 37.7577L42.9176 38.7383ZM48.7665 32.6427C51.2486 31.1615 54.0139 30.416 57.086 30.416V28.416C53.6728 28.416 50.5501 29.2492 47.7415 30.9253L48.7665 32.6427ZM57.086 30.416C59.7085 30.416 61.9563 30.8463 63.8532 31.6762L64.6548 29.8438C62.4557 28.8817 59.9248 28.416 57.086 28.416V30.416ZM63.8601 31.6791C65.8288 32.5229 67.4805 33.6804 68.8297 35.1486L70.3023 33.7954C68.7502 32.1063 66.8605 30.7891 64.6479 29.8409L63.8601 31.6791ZM68.8297 35.1486C70.1916 36.6307 71.2339 38.333 71.9577 40.2631L73.8303 39.5609C73.0181 37.395 71.8417 35.4706 70.3023 33.7954L68.8297 35.1486ZM71.9601 40.2696C72.6805 42.1507 73.046 44.2042 73.046 46.44H75.046C75.046 43.9824 74.6435 41.684 73.8279 39.5544L71.9601 40.2696ZM73.046 46.44C73.046 46.9898 73.0067 47.5642 72.9268 48.1638L74.9092 48.4282C74.9999 47.7478 75.046 47.0849 75.046 46.44H73.046ZM72.9202 48.2295C72.8821 48.8007 72.789 49.2585 72.6582 49.6183L74.5378 50.3017C74.7483 49.7229 74.8685 49.0713 74.9158 48.3625L72.9202 48.2295ZM73.598 48.96H46.718V50.96H73.598V48.96ZM47.718 49.96V43.56H45.718V49.96H47.718ZM46.718 44.56H68.862V42.56H46.718V44.56ZM68.2579 42.7631L64.2899 45.7711L65.4981 47.3649L69.4661 44.3569L68.2579 42.7631ZM65.8754 46.76C66.2879 44.6515 66.1853 42.7044 65.506 40.9576L63.642 41.6824C64.1573 43.0076 64.2681 44.5592 63.9126 46.376L65.8754 46.76ZM65.5146 40.9804C64.8898 39.2503 63.8206 37.8614 62.3189 36.8441L61.1972 38.4999C62.3407 39.2746 63.1489 40.3177 63.6334 41.6596L65.5146 40.9804ZM62.3315 36.8528C60.8556 35.8197 59.0891 35.328 57.086 35.328V37.328C58.7522 37.328 60.1004 37.7323 61.1845 38.4912L62.3315 36.8528ZM57.086 35.328C55.1562 35.328 53.4054 35.8253 51.8653 36.836L52.9627 38.508C54.1533 37.7267 55.5171 37.328 57.086 37.328V35.328ZM51.884 36.824C50.3194 37.8019 49.1506 39.2551 48.3577 41.1209L50.1983 41.9031C50.856 40.3556 51.7779 39.2488 52.944 38.52L51.884 36.824ZM48.3528 41.1324C47.5955 42.9784 47.3344 45.1689 47.5125 47.6632L49.5075 47.5208C49.3443 45.2365 49.5951 43.3736 50.2032 41.8916L48.3528 41.1324ZM47.5132 47.5123C47.3318 49.7802 47.6234 51.848 48.4253 53.6876L50.2587 52.8884C49.6099 51.4 49.3469 49.6705 49.5068 47.6717L47.5132 47.5123ZM48.4383 53.7161C49.2844 55.5023 50.5208 56.9119 52.1445 57.9148L53.1955 56.2132C51.9179 55.4241 50.9356 54.3164 50.2457 52.8599L48.4383 53.7161ZM52.1555 57.9215C53.8199 58.9201 55.7079 59.408 57.79 59.408V57.408C56.0321 57.408 54.5068 56.9999 53.1845 56.2065L52.1555 57.9215ZM57.79 59.408C59.8508 59.408 61.6631 58.9722 63.1766 58.0446L62.1314 56.3394C60.9995 57.0332 59.5692 57.408 57.79 57.408V59.408ZM63.1645 58.0519C64.6784 57.153 65.8705 55.9385 66.7256 54.4183L64.9824 53.4377C64.3015 54.6482 63.3603 55.6096 62.1435 56.3321L63.1645 58.0519ZM65.4136 54.8258L72.1976 58.1538L73.0784 56.3582L66.2944 53.0302L65.4136 54.8258ZM71.7128 56.8764C71.0928 58.3878 70.1208 59.7359 68.7764 60.9222L70.0996 62.4218C71.6565 61.0481 72.8179 59.4522 73.5632 57.6356L71.7128 56.8764ZM68.7764 60.9222C67.4291 62.1109 65.8131 63.0527 63.9139 63.7396L64.5941 65.6204C66.7056 64.8567 68.5455 63.7931 70.0996 62.4218L68.7764 60.9222ZM63.9074 63.742C62.0702 64.4209 60.0136 64.768 57.726 64.768V66.768C60.2171 66.768 62.5125 66.3897 64.6007 65.618L63.9074 63.742ZM89.6815 62.184L88.9674 62.8841L88.9744 62.8911L88.9814 62.8981L89.6815 62.184ZM86.4815 37.672H87.4815V36.672H86.4815V37.672ZM80.4655 37.672H79.4655V38.672H80.4655V37.672ZM80.4655 30.184V29.184H79.4655V30.184H80.4655ZM85.0735 28.84L85.764 29.5634L85.764 29.5634L85.0735 28.84ZM86.4815 22.248V21.248H85.4815V22.248H86.4815ZM94.8655 22.248H95.8655V21.248H94.8655V22.248ZM94.8655 30.184H93.8655V31.184H94.8655V30.184ZM102.866 30.184H103.866V29.184H102.866V30.184ZM102.866 37.672V38.672H103.866V37.672H102.866ZM94.8655 37.672V36.672H93.8655V37.672H94.8655ZM95.4415 55.528L94.5378 55.9561L94.5468 55.9751L94.5566 55.9937L95.4415 55.528ZM97.3615 57.384L96.9143 58.2784L96.9229 58.2827L96.9316 58.2869L97.3615 57.384ZM101.778 57.96L101.678 56.9649L101.667 56.9661L101.778 57.96ZM102.994 57.832H103.994V56.7147L102.883 56.8381L102.994 57.832ZM102.994 65L103.135 65.9899L103.994 65.8673V65H102.994ZM100.946 65.256L101.056 66.2499L100.946 65.256ZM98.8335 64.384C95.0913 64.384 92.3211 63.3715 90.3816 61.4699L88.9814 62.8981C91.3939 65.2632 94.725 66.384 98.8335 66.384V64.384ZM90.3956 61.4839C88.494 59.5444 87.4815 56.7742 87.4815 53.032H85.4815C85.4815 57.1405 86.6023 60.4716 88.9674 62.8841L90.3956 61.4839ZM87.4815 53.032V37.672H85.4815V53.032H87.4815ZM86.4815 36.672H80.4655V38.672H86.4815V36.672ZM81.4655 37.672V30.184H79.4655V37.672H81.4655ZM80.4655 31.184H81.1055V29.184H80.4655V31.184ZM81.1055 31.184C82.9858 31.184 84.5865 30.6873 85.764 29.5634L84.383 28.1166C83.6831 28.7847 82.6386 29.184 81.1055 29.184V31.184ZM85.764 29.5634C86.9572 28.4244 87.4815 26.8259 87.4815 24.936H85.4815C85.4815 26.4595 85.0672 27.4636 84.383 28.1166L85.764 29.5634ZM87.4815 24.936V22.248H85.4815V24.936H87.4815ZM86.4815 23.248H94.8655V21.248H86.4815V23.248ZM93.8655 22.248V30.184H95.8655V22.248H93.8655ZM94.8655 31.184H102.866V29.184H94.8655V31.184ZM101.866 30.184V37.672H103.866V30.184H101.866ZM102.866 36.672H94.8655V38.672H102.866V36.672ZM93.8655 37.672V52.584H95.8655V37.672H93.8655ZM93.8655 52.584C93.8655 53.8435 94.075 54.9792 94.5378 55.9561L96.3452 55.0999C96.04 54.4555 95.8655 53.6285 95.8655 52.584H93.8655ZM94.5566 55.9937C95.0849 56.9976 95.8821 57.7623 96.9143 58.2784L97.8087 56.4896C97.1343 56.1524 96.6514 55.6797 96.3264 55.0623L94.5566 55.9937ZM96.9316 58.2869C98.0025 58.7968 99.2921 59.024 100.754 59.024V57.024C99.4842 57.024 98.5125 56.8245 97.7914 56.4811L96.9316 58.2869ZM100.754 59.024C101.098 59.024 101.477 58.9995 101.888 58.9539L101.667 56.9661C101.31 57.0058 101.006 57.024 100.754 57.024V59.024ZM101.877 58.955C102.307 58.912 102.716 58.869 103.104 58.8259L102.883 56.8381C102.503 56.8803 102.101 56.9226 101.678 56.965L101.877 58.955ZM101.994 57.832V65H103.994V57.832H101.994ZM102.852 64.0101C102.267 64.0936 101.595 64.1776 100.835 64.2621L101.056 66.2499C101.832 66.1637 102.525 66.0771 103.135 65.9899L102.852 64.0101ZM100.835 64.2621C100.097 64.3442 99.43 64.384 98.8335 64.384V66.384C99.517 66.384 100.258 66.3385 101.056 66.2499L100.835 64.2621ZM114.647 35.624H113.647V36.8598L114.856 36.602L114.647 35.624ZM114.647 31.464L114.411 30.4921L113.647 30.6775V31.464H114.647ZM118.039 29.608L117.316 28.9175L117.315 28.9183L118.039 29.608ZM119.703 26.28L120.689 26.4444L120.883 25.28H119.703V26.28ZM115.927 26.28H114.927V27.28H115.927V26.28ZM115.927 17.32V16.32H114.927V17.32H115.927ZM124.375 17.32H125.375V16.32H124.375V17.32ZM121.879 31.336L121.079 30.736L121.077 30.7385L121.879 31.336ZM115.647 35.624V31.464H113.647V35.624H115.647ZM114.883 32.4358C116.445 32.0572 117.756 31.355 118.763 30.2977L117.315 28.9183C116.615 29.653 115.665 30.1882 114.411 30.4921L114.883 32.4358ZM118.762 30.2985C119.797 29.2148 120.443 27.9222 120.689 26.4444L118.717 26.1156C118.536 27.1978 118.073 28.1239 117.316 28.9175L118.762 30.2985ZM119.703 25.28H115.927V27.28H119.703V25.28ZM116.927 26.28V17.32H114.927V26.28H116.927ZM115.927 18.32H124.375V16.32H115.927V18.32ZM123.375 17.32V22.824H125.375V17.32H123.375ZM123.375 22.824C123.375 26.1177 122.584 28.7292 121.079 30.736L122.679 31.936C124.502 29.5054 125.375 26.4423 125.375 22.824H123.375ZM121.077 30.7385C119.629 32.6817 117.452 34.0031 114.438 34.646L114.856 36.602C118.242 35.8796 120.886 34.3423 122.681 31.9335L121.077 30.7385ZM140.914 63.144L140.365 63.98L140.373 63.985L140.381 63.9898L140.914 63.144ZM135.282 55.912L134.85 55.0103L134.051 55.3933L134.335 56.2322L135.282 55.912ZM141.554 52.904L142.464 52.4887L142.04 51.5616L141.122 52.0023L141.554 52.904ZM145.266 57.512L144.691 58.3303L144.701 58.3373L145.266 57.512ZM154.29 58.152L153.684 57.3566L153.684 57.3566L154.29 58.152ZM155.058 53.8L154.249 54.3882L154.28 54.4303L154.315 54.469L155.058 53.8ZM153.586 52.648L153.09 53.5162L153.126 53.5367L153.163 53.5542L153.586 52.648ZM151.602 51.816L151.884 50.8566L151.872 50.8533L151.602 51.816ZM145.906 50.216L145.628 51.1765L145.636 51.1787L145.906 50.216ZM139.186 46.312L138.425 46.9613L138.435 46.9718L139.186 46.312ZM138.546 34.536L137.721 33.9713L137.717 33.9761L138.546 34.536ZM143.09 30.76L142.675 29.8503L142.667 29.8538L143.09 30.76ZM158.514 31.784L159.045 30.9368L159.045 30.9368L158.514 31.784ZM163.89 38.44L164.315 39.345L165.149 38.9533L164.827 38.0904L163.89 38.44ZM157.49 41.448L156.555 41.8019L156.937 42.8128L157.915 42.353L157.49 41.448ZM154.482 37.672L153.927 38.504L153.927 38.504L154.482 37.672ZM146.418 37.224L147.038 38.0089L147.038 38.0089L146.418 37.224ZM147.122 42.536L146.675 43.4304L146.687 43.4365L146.699 43.4422L147.122 42.536ZM149.298 43.368L148.997 44.3216L149.004 44.3239L149.012 44.3261L149.298 43.368ZM154.866 45.032L154.58 45.9901L154.58 45.9902L154.866 45.032ZM161.458 48.872L160.715 49.541L160.724 49.551L161.458 48.872ZM162.162 60.712L162.98 61.287L162.987 61.2767L162.162 60.712ZM150.642 64.768C147.093 64.768 144.041 63.934 141.448 62.2982L140.381 63.9898C143.334 65.8527 146.767 66.768 150.642 66.768V64.768ZM141.463 62.308C138.914 60.6357 137.18 58.4046 136.229 55.5918L134.335 56.2322C135.432 59.4781 137.452 62.0683 140.365 63.98L141.463 62.308ZM135.714 56.8137L141.986 53.8057L141.122 52.0023L134.85 55.0103L135.714 56.8137ZM140.644 53.3193C141.605 55.4241 142.95 57.107 144.691 58.3302L145.841 56.6938C144.424 55.6983 143.295 54.3093 142.464 52.4887L140.644 53.3193ZM144.701 58.3373C146.489 59.5603 148.478 60.176 150.642 60.176V58.176C148.881 58.176 147.286 57.6823 145.831 56.6867L144.701 58.3373ZM150.642 60.176C152.318 60.176 153.772 59.8036 154.896 58.9474L153.684 57.3566C153.016 57.8657 152.038 58.176 150.642 58.176V60.176ZM154.896 58.9474C156.036 58.0791 156.634 56.891 156.634 55.464H154.634C154.634 56.2556 154.336 56.8596 153.684 57.3566L154.896 58.9474ZM156.634 55.464C156.634 54.5837 156.381 53.775 155.801 53.131L154.315 54.469C154.503 54.6783 154.634 54.979 154.634 55.464H156.634ZM155.867 53.2118C155.406 52.5788 154.769 52.0967 154.009 51.7418L153.163 53.5542C153.683 53.7967 154.027 54.0826 154.249 54.3882L155.867 53.2118ZM154.082 51.7798C153.411 51.3962 152.677 51.0898 151.884 50.8566L151.32 52.7754C151.978 52.9689 152.566 53.2171 153.09 53.5162L154.082 51.7798ZM151.872 50.8533L146.176 49.2533L145.636 51.1787L151.332 52.7787L151.872 50.8533ZM146.184 49.2555C143.367 48.4388 141.314 47.2195 139.937 45.6522L138.435 46.9718C140.13 48.9032 142.557 50.2865 145.628 51.1765L146.184 49.2555ZM139.947 45.6627C138.614 44.1019 137.946 42.2654 137.946 40.104H135.946C135.946 42.7213 136.771 45.0234 138.425 46.9613L139.947 45.6627ZM137.946 40.104C137.946 38.1454 138.433 36.4898 139.375 35.0959L137.717 33.9761C136.526 35.7396 135.946 37.7959 135.946 40.104H137.946ZM139.371 35.1007C140.372 33.6387 141.742 32.4926 143.513 31.6662L142.667 29.8538C140.598 30.8194 138.939 32.1906 137.721 33.9713L139.371 35.1007ZM143.505 31.6697C145.318 30.8423 147.412 30.416 149.81 30.416V28.416C147.173 28.416 144.788 28.8857 142.675 29.8503L143.505 31.6697ZM149.81 30.416C152.928 30.416 155.641 31.1627 157.983 32.6312L159.045 30.9368C156.352 29.2479 153.263 28.416 149.81 28.416V30.416ZM157.983 32.6312C160.309 34.0897 161.961 36.1309 162.953 38.7896L164.827 38.0904C163.686 35.0318 161.754 32.6356 159.045 30.9368L157.983 32.6312ZM163.465 37.535L157.065 40.543L157.915 42.353L164.315 39.345L163.465 37.535ZM158.425 41.0941C157.754 39.3197 156.618 37.8941 155.037 36.8399L153.927 38.504C155.162 39.3273 156.031 40.419 156.555 41.8019L158.425 41.0941ZM155.037 36.8399C153.459 35.7879 151.686 35.264 149.746 35.264V37.264C151.305 37.264 152.689 37.6787 153.927 38.504L155.037 36.8399ZM149.746 35.264C148.194 35.264 146.84 35.6168 145.798 36.4391L147.038 38.0089C147.617 37.5512 148.482 37.264 149.746 37.264V35.264ZM145.798 36.4391C144.75 37.2668 144.202 38.3869 144.202 39.72H146.202C146.202 39.0051 146.465 38.4612 147.038 38.0089L145.798 36.4391ZM144.202 39.72C144.202 40.5485 144.427 41.3143 144.905 41.9722L146.523 40.7958C146.319 40.515 146.202 40.1715 146.202 39.72H144.202ZM144.905 41.9722C145.354 42.5894 145.956 43.071 146.675 43.4304L147.569 41.6416C147.093 41.4037 146.757 41.1173 146.523 40.7958L144.905 41.9722ZM146.699 43.4422C147.386 43.7625 148.153 44.055 148.997 44.3216L149.599 42.4144C148.822 42.169 148.138 41.9068 147.545 41.6298L146.699 43.4422ZM149.012 44.3261L154.58 45.9901L155.152 44.0739L149.584 42.4099L149.012 44.3261ZM154.58 45.9902C157.314 46.8064 159.333 48.0061 160.715 49.541L162.201 48.203C160.511 46.3246 158.135 44.9643 155.152 44.0738L154.58 45.9902ZM160.724 49.551C162.12 51.0603 162.826 52.9033 162.826 55.144H164.826C164.826 52.4354 163.953 50.0971 162.192 48.193L160.724 49.551ZM162.826 55.144C162.826 57.0468 162.325 58.7032 161.337 60.1473L162.987 61.2767C164.218 59.4781 164.826 57.4226 164.826 55.144H162.826ZM161.344 60.1371C160.348 61.5537 158.959 62.6832 157.139 63.5143L157.969 65.3337C160.074 64.3728 161.757 63.0276 162.98 61.2869L161.344 60.1371ZM157.139 63.5143C155.332 64.3389 153.176 64.768 150.642 64.768V66.768C153.399 66.768 155.85 66.3011 157.969 65.3337L157.139 63.5143ZM190.796 65H189.796V66H190.796V65ZM190.796 37.672H191.796V36.672H190.796V37.672ZM184.652 37.672H183.652V38.672H184.652V37.672ZM184.652 30.184V29.184H183.652V30.184H184.652ZM190.796 30.184V31.184H191.796V30.184H190.796ZM192.396 22.312L191.535 21.8033L191.531 21.8094L192.396 22.312ZM205.644 16.68L205.503 17.6699L205.54 17.6753L205.577 17.6778L205.644 16.68ZM207.244 16.872H208.244V16.0522L207.44 15.8914L207.244 16.872ZM207.244 24.104L207.048 25.0846L208.244 25.3238V24.104H207.244ZM206.028 23.976L205.904 24.9683L205.966 24.976H206.028V23.976ZM200.716 25.192L201.337 25.976L201.347 25.9683L201.356 25.9602L200.716 25.192ZM199.18 30.184H198.18V31.184H199.18V30.184ZM214.412 30.184H215.412V29.184H214.412V30.184ZM214.412 37.672V38.672H215.412V37.672H214.412ZM199.18 37.672V36.672H198.18V37.672H199.18ZM199.18 65V66H200.18V65H199.18ZM211.276 65H210.276V66H211.276V65ZM211.276 30.184V29.184H210.276V30.184H211.276ZM219.724 30.184H220.724V29.184H219.724V30.184ZM219.724 65V66H220.724V65H219.724ZM191.796 65V37.672H189.796V65H191.796ZM190.796 36.672H184.652V38.672H190.796V36.672ZM185.652 37.672V30.184H183.652V37.672H185.652ZM184.652 31.184H190.796V29.184H184.652V31.184ZM191.796 30.184V29.032H189.796V30.184H191.796ZM191.796 29.032C191.796 26.5202 192.302 24.4633 193.261 22.8146L191.531 21.8094C190.357 23.83 189.796 26.2532 189.796 29.032H191.796ZM193.257 22.8207C194.268 21.1102 195.66 19.8143 197.451 18.9184L196.557 17.1296C194.423 18.1964 192.743 19.7591 191.535 21.8033L193.257 22.8207ZM197.451 18.9184C199.247 18.0204 201.413 17.552 203.98 17.552V15.552C201.171 15.552 198.686 16.0649 196.557 17.1296L197.451 18.9184ZM203.98 17.552C204.437 17.552 204.944 17.5902 205.503 17.6699L205.785 15.69C205.149 15.5992 204.547 15.552 203.98 15.552V17.552ZM205.577 17.6778C206.192 17.7188 206.679 17.7788 207.048 17.8526L207.44 15.8914C206.956 15.7946 206.376 15.7266 205.711 15.6822L205.577 17.6778ZM206.244 16.872V24.104H208.244V16.872H206.244ZM207.44 23.1234C206.957 23.0268 206.486 22.976 206.028 22.976V24.976C206.338 24.976 206.677 25.0105 207.048 25.0846L207.44 23.1234ZM206.152 22.9837C205.776 22.9367 205.414 22.912 205.068 22.912V24.912C205.32 24.912 205.598 24.93 205.904 24.9683L206.152 22.9837ZM205.068 22.912C203.051 22.912 201.341 23.3698 200.076 24.4238L201.356 25.9602C202.139 25.3076 203.33 24.912 205.068 24.912V22.912ZM200.095 24.408C198.756 25.468 198.18 27.0883 198.18 29.032H200.18C200.18 27.477 200.628 26.5373 201.337 25.976L200.095 24.408ZM198.18 29.032V30.184H200.18V29.032H198.18ZM199.18 31.184H214.412V29.184H199.18V31.184ZM213.412 30.184V37.672H215.412V30.184H213.412ZM214.412 36.672H199.18V38.672H214.412V36.672ZM198.18 37.672V65H200.18V37.672H198.18ZM199.18 64H190.796V66H199.18V64ZM212.276 65V30.184H210.276V65H212.276ZM211.276 31.184H219.724V29.184H211.276V31.184ZM218.724 30.184V65H220.724V30.184H218.724ZM219.724 64H211.276V66H219.724V64ZM229.261 65H228.261V66H229.261V65ZM229.261 30.184V29.184H228.261V30.184H229.261ZM237.133 30.184H238.133V29.184H237.133V30.184ZM237.133 37.032L236.249 37.4977L238.133 37.032H237.133ZM236.493 35.816L235.561 35.4545L235.397 35.8789L235.609 36.2817L236.493 35.816ZM240.461 31.08L240.964 31.9445L240.97 31.9409L240.461 31.08ZM253.774 31.08L253.281 31.9506L253.289 31.955L253.774 31.08ZM258.445 35.752L257.57 36.2361L257.575 36.2441L258.445 35.752ZM260.11 65V66H261.11V65H260.11ZM251.726 65H250.726V66H251.726V65ZM250.83 40.616L251.71 40.1419L251.71 40.1419L250.83 40.616ZM248.333 38.056L247.804 38.904L247.824 38.9167L247.845 38.9285L248.333 38.056ZM241.037 38.056L241.526 38.9285L241.539 38.9212L241.552 38.9135L241.037 38.056ZM238.541 40.616L239.422 41.0901L239.422 41.0901L238.541 40.616ZM237.645 65V66H238.645V65H237.645ZM230.261 65V30.184H228.261V65H230.261ZM229.261 31.184H237.133V29.184H229.261V31.184ZM236.133 30.184V37.032H238.133V30.184H236.133ZM238.018 36.5663L237.378 35.3503L235.609 36.2817L236.249 37.4977L238.018 36.5663ZM237.426 36.1775C238.159 34.2855 239.337 32.8904 240.964 31.9445L239.959 30.2155C237.916 31.403 236.449 33.1651 235.561 35.4545L237.426 36.1775ZM240.97 31.9409C242.674 30.9344 244.669 30.416 246.99 30.416V28.416C244.36 28.416 242.004 29.0069 239.953 30.2191L240.97 31.9409ZM246.99 30.416C249.401 30.416 251.488 30.937 253.281 31.9506L254.266 30.2094C252.133 29.0043 249.698 28.416 246.99 28.416V30.416ZM253.289 31.955C255.13 32.9734 256.552 34.3952 257.57 36.2361L259.321 35.2679C258.12 33.0981 256.427 31.4053 254.258 30.205L253.289 31.955ZM257.575 36.2441C258.587 38.0348 259.11 40.1428 259.11 42.6H261.11C261.11 39.8518 260.523 37.3945 259.316 35.2599L257.575 36.2441ZM259.11 42.6V65H261.11V42.6H259.11ZM260.11 64H251.726V66H260.11V64ZM252.726 65V44.584H250.726V65H252.726ZM252.726 44.584C252.726 42.9184 252.401 41.4256 251.71 40.1419L249.949 41.0901C250.452 42.0251 250.726 43.1776 250.726 44.584H252.726ZM251.71 40.1419C251.025 38.8706 250.06 37.8766 248.822 37.1835L247.845 38.9285C248.74 39.43 249.439 40.1427 249.949 41.0901L251.71 40.1419ZM248.863 37.208C247.656 36.4531 246.249 36.096 244.685 36.096V38.096C245.938 38.096 246.963 38.3789 247.804 38.904L248.863 37.208ZM244.685 36.096C243.157 36.096 241.76 36.4563 240.523 37.1985L241.552 38.9135C242.448 38.3757 243.483 38.096 244.685 38.096V36.096ZM240.549 37.1835C239.311 37.8766 238.346 38.8706 237.661 40.1419L239.422 41.0901C239.932 40.1427 240.631 39.43 241.526 38.9285L240.549 37.1835ZM237.661 40.1419C236.97 41.4256 236.645 42.9184 236.645 44.584H238.645C238.645 43.1776 238.919 42.0251 239.422 41.0901L237.661 40.1419ZM236.645 44.584V65H238.645V44.584H236.645ZM237.645 64H229.261V66H237.645V64ZM276.927 63.4L276.404 64.2527L276.415 64.2587L276.927 63.4ZM270.655 56.808L271.53 56.3235L270.655 56.808ZM270.655 38.376L271.527 38.8663L271.527 38.8663L270.655 38.376ZM276.927 31.848L276.411 30.9917L276.404 30.9954L276.927 31.848ZM292.927 31.016L292.465 31.9029L292.476 31.9086L292.487 31.9141L292.927 31.016ZM297.855 35.368L298.659 35.9632L299.068 35.411L298.699 34.8311L297.855 35.368ZM296.575 37.096H295.575V40.126L297.379 37.6912L296.575 37.096ZM296.575 16.552V15.552H295.575V16.552H296.575ZM304.959 16.552H305.959V15.552H304.959V16.552ZM304.959 65V66H305.959V65H304.959ZM297.023 65H296.023V66H297.023V65ZM297.023 58.28L297.903 57.8059L296.023 58.28H297.023ZM297.919 59.944L298.763 60.4809L299.077 59.9862L298.799 59.4699L297.919 59.944ZM292.927 64.296L293.345 65.2045L293.352 65.2011L293.36 65.1975L292.927 64.296ZM291.903 56.744L291.378 55.8932L291.378 55.8932L291.903 56.744ZM295.295 53.032L294.415 52.5565L294.41 52.5658L294.405 52.5752L295.295 53.032ZM295.295 42.216L294.401 42.6632L294.408 42.6775L294.415 42.6915L295.295 42.216ZM291.903 38.44L291.378 39.2908L291.378 39.2908L291.903 38.44ZM281.791 38.504L282.306 39.3615L282.314 39.3562L282.323 39.3506L281.791 38.504ZM278.271 42.216L277.391 41.7405L277.387 41.7492L278.271 42.216ZM278.271 53.032L277.381 53.4888L277.386 53.4982L277.391 53.5075L278.271 53.032ZM281.791 56.744L282.306 55.8865L282.306 55.8865L281.791 56.744ZM285.951 64.768C282.743 64.768 279.915 64.0189 277.439 62.5413L276.415 64.2587C279.229 65.9384 282.417 66.768 285.951 66.768V64.768ZM277.45 62.5474C274.955 61.0183 272.984 58.9492 271.53 56.3235L269.78 57.2925C271.398 60.2134 273.609 62.539 276.404 64.2526L277.45 62.5474ZM271.53 56.3235C270.081 53.7078 269.351 50.8042 269.351 47.592H267.351C267.351 51.1211 268.157 54.3615 269.78 57.2925L271.53 56.3235ZM269.351 47.592C269.351 44.3346 270.082 41.4341 271.527 38.8663L269.783 37.8857C268.156 40.7793 267.351 44.0227 267.351 47.592H269.351ZM271.527 38.8663C272.98 36.2826 274.951 34.232 277.45 32.7006L276.404 30.9954C273.612 32.7067 271.402 35.008 269.783 37.8857L271.527 38.8663ZM277.444 32.7043C279.968 31.1815 282.775 30.416 285.887 30.416V28.416C282.429 28.416 279.262 29.2719 276.411 30.9917L277.444 32.7043ZM285.887 30.416C288.395 30.416 290.579 30.9207 292.465 31.9029L293.389 30.1291C291.179 28.9779 288.67 28.416 285.887 28.416V30.416ZM292.487 31.9141C294.421 32.861 295.92 34.1901 297.011 35.9049L298.699 34.8311C297.401 32.7912 295.615 31.219 293.367 30.1179L292.487 31.9141ZM297.051 34.7728L295.771 36.5008L297.379 37.6912L298.659 35.9632L297.051 34.7728ZM297.575 37.096V16.552H295.575V37.096H297.575ZM296.575 17.552H304.959V15.552H296.575V17.552ZM303.959 16.552V65H305.959V16.552H303.959ZM304.959 64H297.023V66H304.959V64ZM298.023 65V58.28H296.023V65H298.023ZM296.143 58.7541L297.039 60.4181L298.799 59.4699L297.903 57.8059L296.143 58.7541ZM297.075 59.4071C295.987 61.1168 294.47 62.4459 292.494 63.3945L293.36 65.1975C295.65 64.0981 297.461 62.5259 298.763 60.4809L297.075 59.4071ZM292.509 63.3875C290.516 64.3043 288.335 64.768 285.951 64.768V66.768C288.602 66.768 291.071 66.2504 293.345 65.2045L292.509 63.3875ZM286.847 59.088C288.929 59.088 290.801 58.6002 292.429 57.5948L291.378 55.8932C290.104 56.6798 288.605 57.088 286.847 57.088V59.088ZM292.429 57.5948C294.041 56.5991 295.294 55.2226 296.185 53.4888L294.405 52.5752C293.674 53.9987 292.667 55.0969 291.378 55.8932L292.429 57.5948ZM296.175 53.5075C297.118 51.7633 297.575 49.7823 297.575 47.592H295.575C295.575 49.4977 295.179 51.1434 294.415 52.5565L296.175 53.5075ZM297.575 47.592C297.575 45.4405 297.116 43.4817 296.175 41.7405L294.415 42.6915C295.181 44.1076 295.575 45.7329 295.575 47.592H297.575ZM296.189 41.7688C295.301 39.9922 294.047 38.5891 292.429 37.5892L291.378 39.2908C292.66 40.0829 293.668 41.1971 294.401 42.6632L296.189 41.7688ZM292.429 37.5892C290.801 36.5838 288.929 36.096 286.847 36.096V38.096C288.605 38.096 290.104 38.5042 291.378 39.2908L292.429 37.5892ZM286.847 36.096C284.794 36.096 282.922 36.612 281.259 37.6574L282.323 39.3506C283.647 38.5187 285.145 38.096 286.847 38.096V36.096ZM281.277 37.6465C279.625 38.6377 278.327 40.0091 277.391 41.7405L279.151 42.6915C279.921 41.2656 280.971 40.1623 282.306 39.3615L281.277 37.6465ZM277.387 41.7492C276.488 43.4528 276.055 45.4104 276.055 47.592H278.055C278.055 45.6776 278.433 44.0512 279.155 42.6828L277.387 41.7492ZM276.055 47.592C276.055 49.7743 276.488 51.7485 277.381 53.4888L279.161 52.5752C278.433 51.1582 278.055 49.5057 278.055 47.592H276.055ZM277.391 53.5075C278.327 55.2389 279.625 56.6103 281.277 57.6015L282.306 55.8865C280.971 55.0857 279.921 53.9824 279.151 52.5565L277.391 53.5075ZM281.277 57.6015C282.937 58.598 284.803 59.088 286.847 59.088V57.088C285.136 57.088 283.631 56.682 282.306 55.8865L281.277 57.6015ZM336.934 63.4L336.439 64.2691L336.445 64.2723L336.934 63.4ZM330.278 56.936L329.418 57.4466L329.424 57.4564L330.278 56.936ZM330.278 38.248L329.424 37.7276L329.418 37.7375L330.278 38.248ZM336.934 31.784L336.439 30.9149L336.439 30.9149L336.934 31.784ZM355.558 31.784L356.053 30.9149L356.053 30.9149L355.558 31.784ZM362.15 38.248L361.29 38.7585L361.295 38.7665L361.3 38.7744L362.15 38.248ZM362.15 56.936L363.004 57.4564L363.004 57.4564L362.15 56.936ZM355.494 63.4L355.989 64.2691L355.494 63.4ZM351.206 56.744L350.68 55.8931L350.669 55.9003L351.206 56.744ZM354.598 53.032L353.713 52.5662L353.708 52.5752L354.598 53.032ZM354.598 42.216L353.708 42.6728L353.716 42.6873L353.724 42.7016L354.598 42.216ZM351.206 38.504L350.651 39.336L350.666 39.3457L350.681 39.3548L351.206 38.504ZM341.222 38.504L341.748 39.3548L341.756 39.3493L341.765 39.3436L341.222 38.504ZM337.766 42.216L336.886 41.7405L336.882 41.7492L337.766 42.216ZM337.766 53.032L336.872 53.4792L336.879 53.4935L336.886 53.5075L337.766 53.032ZM341.222 56.744L341.747 55.8932L341.747 55.8932L341.222 56.744ZM346.278 64.768C343.026 64.768 340.081 64.0178 337.423 62.5277L336.445 64.2723C339.419 65.9395 342.704 66.768 346.278 66.768V64.768ZM337.429 62.5309C334.803 61.0363 332.708 59.0018 331.132 56.4156L329.424 57.4564C331.176 60.3315 333.518 62.6063 336.439 64.2691L337.429 62.5309ZM331.138 56.4255C329.617 53.8647 328.846 50.9298 328.846 47.592H326.846C326.846 51.2515 327.696 54.546 329.418 57.4465L331.138 56.4255ZM328.846 47.592C328.846 44.2542 329.617 41.3193 331.138 38.7585L329.418 37.7375C327.696 40.638 326.846 43.9325 326.846 47.592H328.846ZM331.132 38.7684C332.708 36.1822 334.803 34.1477 337.429 32.6531L336.439 30.9149C333.518 32.5777 331.176 34.8525 329.424 37.7276L331.132 38.7684ZM337.429 32.6531C340.039 31.1673 342.981 30.416 346.278 30.416V28.416C342.663 28.416 339.376 29.2434 336.439 30.9149L337.429 32.6531ZM346.278 30.416C349.53 30.416 352.451 31.1662 355.063 32.6531L356.053 30.9149C353.118 29.2445 349.852 28.416 346.278 28.416V30.416ZM355.063 32.6531C357.687 34.1464 359.758 36.1778 361.29 38.7585L363.01 37.7375C361.3 34.8569 358.976 32.579 356.053 30.9149L355.063 32.6531ZM361.3 38.7744C362.854 41.2858 363.646 44.2136 363.646 47.592H365.646C365.646 43.8877 364.774 40.5862 363 37.7216L361.3 38.7744ZM363.646 47.592C363.646 50.925 362.856 53.8563 361.296 56.4156L363.004 57.4564C364.772 54.5544 365.646 51.2564 365.646 47.592H363.646ZM361.296 56.4156C359.72 59.0018 357.625 61.0363 354.999 62.5309L355.989 64.2691C358.91 62.6063 361.252 60.3315 363.004 57.4564L361.296 56.4156ZM354.999 62.5309C352.385 64.0189 349.485 64.768 346.278 64.768V66.768C349.812 66.768 353.056 65.9384 355.989 64.2691L354.999 62.5309ZM346.278 59.088C348.321 59.088 350.155 58.5981 351.743 57.5877L350.669 55.9003C349.441 56.6819 347.99 57.088 346.278 57.088V59.088ZM351.731 57.5948C353.344 56.5991 354.597 55.2226 355.488 53.4888L353.708 52.5752C352.977 53.9987 351.97 55.0969 350.681 55.8932L351.731 57.5948ZM355.483 53.4977C356.419 51.7196 356.878 49.744 356.878 47.592H354.878C354.878 49.4507 354.484 51.1018 353.713 52.5663L355.483 53.4977ZM356.878 47.592C356.878 45.4024 356.421 43.4378 355.472 41.7304L353.724 42.7016C354.482 44.0661 354.878 45.6856 354.878 47.592H356.878ZM355.488 41.7592C354.597 40.0254 353.344 38.6489 351.732 37.6532L350.681 39.3548C351.97 40.1511 352.977 41.2493 353.708 42.6728L355.488 41.7592ZM351.761 37.6719C350.171 36.612 348.33 36.096 346.278 36.096V38.096C347.98 38.096 349.425 38.5187 350.651 39.336L351.761 37.6719ZM346.278 36.096C344.187 36.096 342.309 36.6096 340.679 37.6644L341.765 39.3436C343.036 38.5211 344.529 38.096 346.278 38.096V36.096ZM340.697 37.6532C339.089 38.646 337.818 40.0163 336.886 41.7405L338.646 42.6915C339.42 41.2584 340.454 40.154 341.748 39.3548L340.697 37.6532ZM336.882 41.7492C335.983 43.4528 335.55 45.4104 335.55 47.592H337.55C337.55 45.6776 337.928 44.0512 338.65 42.6828L336.882 41.7492ZM335.55 47.592C335.55 49.7359 335.984 51.7048 336.872 53.4792L338.66 52.5848C337.926 51.1165 337.55 49.4588 337.55 47.592H335.55ZM336.886 53.5075C337.818 55.2317 339.089 56.602 340.697 57.5948L341.747 55.8932C340.454 55.094 339.42 53.9896 338.646 52.5565L336.886 53.5075ZM340.697 57.5948C342.324 58.6002 344.196 59.088 346.278 59.088V57.088C344.52 57.088 343.021 56.6798 341.747 55.8932L340.697 57.5948ZM378.94 63.976L378.42 64.8302L378.428 64.8351L378.94 63.976ZM374.396 58.984L373.494 59.4167L373.498 59.424L373.502 59.4312L374.396 58.984ZM372.86 30.184V29.184H371.86V30.184H372.86ZM381.244 30.184H382.244V29.184H381.244V30.184ZM382.076 54.632L381.182 55.0792L381.192 55.1002L381.203 55.1206L382.076 54.632ZM384.572 57.192L384.058 58.0495L384.077 58.0615L384.098 58.0725L384.572 57.192ZM391.932 57.192L392.421 58.0645L392.434 58.0572L392.447 58.0495L391.932 57.192ZM394.428 54.568L395.308 55.0421L395.308 55.0421L394.428 54.568ZM395.324 30.184V29.184H394.324V30.184H395.324ZM403.708 30.184H404.708V29.184H403.708V30.184ZM403.708 65V66H404.708V65H403.708ZM395.772 65H394.772V66H395.772V65ZM395.772 58.152L396.637 57.651L394.772 54.4289V58.152H395.772ZM396.476 59.368L397.411 59.7232L397.58 59.2786L397.341 58.867L396.476 59.368ZM392.444 64.168L391.95 63.2985L391.941 63.3035L392.444 64.168ZM385.98 64.768C383.444 64.768 381.28 64.2061 379.452 63.1169L378.428 64.8351C380.611 66.1352 383.14 66.768 385.98 66.768V64.768ZM379.46 63.1218C377.664 62.0287 376.276 60.5087 375.29 58.5368L373.502 59.4312C374.649 61.726 376.29 63.5339 378.42 64.8302L379.46 63.1218ZM375.298 58.5513C374.35 56.5782 373.86 54.2356 373.86 51.496H371.86C371.86 54.4738 372.394 57.1232 373.494 59.4167L375.298 58.5513ZM373.86 51.496V30.184H371.86V51.496H373.86ZM372.86 31.184H381.244V29.184H372.86V31.184ZM380.244 30.184V50.792H382.244V30.184H380.244ZM380.244 50.792C380.244 52.3716 380.547 53.8093 381.182 55.0792L382.97 54.1848C382.496 53.236 382.244 52.1137 382.244 50.792H380.244ZM381.203 55.1206C381.888 56.3421 382.844 57.3215 384.058 58.0495L385.086 56.3345C384.167 55.7825 383.459 55.0552 382.949 54.1434L381.203 55.1206ZM384.098 58.0725C385.365 58.7547 386.767 59.088 388.284 59.088V57.088C387.07 57.088 385.998 56.8239 385.046 56.3115L384.098 58.0725ZM388.284 59.088C389.8 59.088 391.188 58.7549 392.421 58.0645L391.443 56.3195C390.543 56.8238 389.499 57.088 388.284 57.088V59.088ZM392.447 58.0495C393.669 57.3157 394.627 56.3077 395.308 55.0421L393.548 54.0939C393.034 55.047 392.328 55.7883 391.418 56.3345L392.447 58.0495ZM395.308 55.0421C396 53.7584 396.324 52.2656 396.324 50.6H394.324C394.324 52.0064 394.051 53.1589 393.548 54.0939L395.308 55.0421ZM396.324 50.6V30.184H394.324V50.6H396.324ZM395.324 31.184H403.708V29.184H395.324V31.184ZM402.708 30.184V65H404.708V30.184H402.708ZM403.708 64H395.772V66H403.708V64ZM396.772 65V58.152H394.772V65H396.772ZM394.907 58.653L395.611 59.869L397.341 58.867L396.637 57.651L394.907 58.653ZM395.541 59.0128C394.808 60.942 393.613 62.3537 391.95 63.2985L392.938 65.0375C395.03 63.849 396.523 62.0606 397.411 59.7232L395.541 59.0128ZM391.941 63.3035C390.283 64.2676 388.308 64.768 385.98 64.768V66.768C388.602 66.768 390.936 66.2017 392.947 65.0325L391.941 63.3035ZM420.782 62.184L420.067 62.8841L420.074 62.8911L420.081 62.8981L420.782 62.184ZM417.582 37.672H418.582V36.672H417.582V37.672ZM411.566 37.672H410.566V38.672H411.566V37.672ZM411.566 30.184V29.184H410.566V30.184H411.566ZM416.174 28.84L416.864 29.5634L416.864 29.5634L416.174 28.84ZM417.582 22.248V21.248H416.582V22.248H417.582ZM425.966 22.248H426.966V21.248H425.966V22.248ZM425.966 30.184H424.966V31.184H425.966V30.184ZM433.966 30.184H434.966V29.184H433.966V30.184ZM433.966 37.672V38.672H434.966V37.672H433.966ZM425.966 37.672V36.672H424.966V37.672H425.966ZM426.542 55.528L425.638 55.9561L425.647 55.9751L425.657 55.9937L426.542 55.528ZM428.462 57.384L428.014 58.2784L428.023 58.2827L428.032 58.2869L428.462 57.384ZM432.878 57.96L432.778 56.9649L432.767 56.9661L432.878 57.96ZM434.094 57.832H435.094V56.7147L433.983 56.8381L434.094 57.832ZM434.094 65L434.235 65.9899L435.094 65.8673V65H434.094ZM432.046 65.256L432.156 66.2499L432.046 65.256ZM429.934 64.384C426.191 64.384 423.421 63.3715 421.482 61.4699L420.081 62.8981C422.494 65.2632 425.825 66.384 429.934 66.384V64.384ZM421.496 61.4839C419.594 59.5444 418.582 56.7742 418.582 53.032H416.582C416.582 57.1405 417.702 60.4716 420.067 62.8841L421.496 61.4839ZM418.582 53.032V37.672H416.582V53.032H418.582ZM417.582 36.672H411.566V38.672H417.582V36.672ZM412.566 37.672V30.184H410.566V37.672H412.566ZM411.566 31.184H412.206V29.184H411.566V31.184ZM412.206 31.184C414.086 31.184 415.687 30.6873 416.864 29.5634L415.483 28.1166C414.783 28.7847 413.739 29.184 412.206 29.184V31.184ZM416.864 29.5634C418.057 28.4244 418.582 26.8259 418.582 24.936H416.582C416.582 26.4595 416.167 27.4636 415.483 28.1166L416.864 29.5634ZM418.582 24.936V22.248H416.582V24.936H418.582ZM417.582 23.248H425.966V21.248H417.582V23.248ZM424.966 22.248V30.184H426.966V22.248H424.966ZM425.966 31.184H433.966V29.184H425.966V31.184ZM432.966 30.184V37.672H434.966V30.184H432.966ZM433.966 36.672H425.966V38.672H433.966V36.672ZM424.966 37.672V52.584H426.966V37.672H424.966ZM424.966 52.584C424.966 53.8435 425.175 54.9792 425.638 55.9561L427.445 55.0999C427.14 54.4555 426.966 53.6285 426.966 52.584H424.966ZM425.657 55.9937C426.185 56.9976 426.982 57.7623 428.014 58.2784L428.909 56.4896C428.234 56.1524 427.751 55.6797 427.426 55.0623L425.657 55.9937ZM428.032 58.2869C429.102 58.7968 430.392 59.024 431.854 59.024V57.024C430.584 57.024 429.613 56.8245 428.891 56.4811L428.032 58.2869ZM431.854 59.024C432.198 59.024 432.577 58.9995 432.988 58.9539L432.767 56.9661C432.41 57.0058 432.106 57.024 431.854 57.024V59.024ZM432.977 58.955C433.407 58.912 433.816 58.869 434.204 58.8259L433.983 56.8381C433.603 56.8803 433.201 56.9226 432.778 56.965L432.977 58.955ZM433.094 57.832V65H435.094V57.832H433.094ZM433.952 64.0101C433.367 64.0936 432.695 64.1776 431.935 64.2621L432.156 66.2499C432.932 66.1637 433.625 66.0771 434.235 65.9899L433.952 64.0101ZM431.935 64.2621C431.197 64.3442 430.53 64.384 429.934 64.384V66.384C430.617 66.384 431.358 66.3385 432.156 66.2499L431.935 64.2621ZM447.347 50.536L446.347 50.5533L446.364 51.536H447.347V50.536ZM446.771 17.32V16.32H445.754L445.771 17.3373L446.771 17.32ZM455.283 17.32L456.283 17.3373L456.3 16.32H455.283V17.32ZM454.707 50.536V51.536H455.69L455.707 50.5533L454.707 50.536ZM446.771 65H445.771V66H446.771V65ZM446.771 56.04V55.04H445.771V56.04H446.771ZM455.283 56.04H456.283V55.04H455.283V56.04ZM455.283 65V66H456.283V65H455.283ZM448.347 50.5187L447.771 17.3027L445.771 17.3373L446.347 50.5533L448.347 50.5187ZM446.771 18.32H455.283V16.32H446.771V18.32ZM454.283 17.3027L453.707 50.5187L455.707 50.5533L456.283 17.3373L454.283 17.3027ZM454.707 49.536H447.347V51.536H454.707V49.536ZM447.771 65V56.04H445.771V65H447.771ZM446.771 57.04H455.283V55.04H446.771V57.04ZM454.283 56.04V65H456.283V56.04H454.283ZM455.283 64H446.771V66H455.283V64Z" fill="#65451F" fill-opacity="0.3" mask="url(#path-1-outside-1_14_16)"/>
</g>
<defs>
<clipPath id="clip0_14_16">
<rect width="483" height="76" fill="white"/>
</clipPath>
</defs>
</svg>
